<svg id="visual" viewBox="0 0 1000 300" width="1000" height="300" xmlns="http://www.w3.org/2000/svg" xmlns:xlink="http://www.w3.org/1999/xlink" version="1.1"><rect x="0" y="0" width="1000" height="300" fill="#02111B"></rect><path d="M0 199L23.8 202.5C47.7 206 95.3 213 143 209.3C190.7 205.7 238.3 191.3 286 186.8C333.7 182.3 381.3 187.7 428.8 192.8C476.3 198 523.7 203 571.2 207.3C618.7 211.7 666.3 215.3 714 217.2C761.7 219 809.3 219 857 213.7C904.7 208.3 952.3 197.7 976.2 192.3L1000 187L1000 301L976.2 301C952.3 301 904.7 301 857 301C809.3 301 761.7 301 714 301C666.3 301 618.7 301 571.2 301C523.7 301 476.3 301 428.8 301C381.3 301 333.7 301 286 301C238.3 301 190.7 301 143 301C95.3 301 47.7 301 23.8 301L0 301Z" fill="#fa7268"></path><path d="M0 209L23.8 208.5C47.7 208 95.3 207 143 207.5C190.7 208 238.3 210 286 211.7C333.7 213.3 381.3 214.7 428.8 219.2C476.3 223.7 523.7 231.3 571.2 229.3C618.7 227.3 666.3 215.7 714 212.3C761.7 209 809.3 214 857 217.5C904.7 221 952.3 223 976.2 224L1000 225L1000 301L976.2 301C952.3 301 904.7 301 857 301C809.3 301 761.7 301 714 301C666.3 301 618.7 301 571.2 301C523.7 301 476.3 301 428.8 301C381.3 301 333.7 301 286 301C238.3 301 190.7 301 143 301C95.3 301 47.7 301 23.8 301L0 301Z" fill="#ef5f67"></path><path d="M0 222L23.8 224.5C47.7 227 95.3 232 143 236.5C190.7 241 238.3 245 286 247.5C333.7 250 381.3 251 428.8 251C476.3 251 523.7 250 571.2 245.8C618.7 241.7 666.3 234.3 714 231.5C761.7 228.7 809.3 230.3 857 230.8C904.7 231.3 952.3 230.7 976.2 230.3L1000 230L1000 301L976.2 301C952.3 301 904.7 301 857 301C809.3 301 761.7 301 714 301C666.3 301 618.7 301 571.2 301C523.7 301 476.3 301 428.8 301C381.3 301 333.7 301 286 301C238.3 301 190.7 301 143 301C95.3 301 47.7 301 23.8 301L0 301Z" fill="#e34c67"></path><path d="M0 259L23.8 259.8C47.7 260.7 95.3 262.3 143 260.5C190.7 258.7 238.3 253.3 286 251.3C333.7 249.3 381.3 250.7 428.8 254C476.3 257.3 523.7 262.7 571.2 262.3C618.7 262 666.3 256 714 254.3C761.7 252.7 809.3 255.3 857 256.8C904.7 258.3 952.3 258.7 976.2 258.8L1000 259L1000 301L976.2 301C952.3 301 904.7 301 857 301C809.3 301 761.7 301 714 301C666.3 301 618.7 301 571.2 301C523.7 301 476.3 301 428.8 301C381.3 301 333.7 301 286 301C238.3 301 190.7 301 143 301C95.3 301 47.7 301 23.8 301L0 301Z" fill="#d53867"></path><path d="M0 269L23.8 271.3C47.7 273.7 95.3 278.3 143 280.5C190.7 282.7 238.3 282.3 286 282.7C333.7 283 381.3 284 428.8 281.5C476.3 279 523.7 273 571.2 269.8C618.7 266.7 666.3 266.3 714 269C761.7 271.7 809.3 277.3 857 280C904.7 282.7 952.3 282.3 976.2 282.2L1000 282L1000 301L976.2 301C952.3 301 904.7 301 857 301C809.3 301 761.7 301 714 301C666.3 301 618.7 301 571.2 301C523.7 301 476.3 301 428.8 301C381.3 301 333.7 301 286 301C238.3 301 190.7 301 143 301C95.3 301 47.7 301 23.8 301L0 301Z" fill="#c62368"></path></svg>