<svg id="visual" viewBox="0 0 1000 100" width="1000" height="100" xmlns="http://www.w3.org/2000/svg" xmlns:xlink="http://www.w3.org/1999/xlink" version="1.1"><rect x="0" y="0" width="1000" height="100" fill="#02111B"></rect><path d="M0 65L23.8 66C47.7 67 95.3 69 143 68.8C190.7 68.7 238.3 66.3 286 65.8C333.7 65.3 381.3 66.7 428.8 65.8C476.3 65 523.7 62 571.2 62.8C618.7 63.7 666.3 68.3 714 69C761.7 69.7 809.3 66.3 857 64.5C904.7 62.7 952.3 62.3 976.2 62.2L1000 62L1000 101L976.2 101C952.3 101 904.7 101 857 101C809.3 101 761.7 101 714 101C666.3 101 618.7 101 571.2 101C523.7 101 476.3 101 428.8 101C381.3 101 333.7 101 286 101C238.3 101 190.7 101 143 101C95.3 101 47.7 101 23.8 101L0 101Z" fill="#fa7268"></path><path d="M0 70L23.8 71.5C47.7 73 95.3 76 143 75.5C190.7 75 238.3 71 286 70C333.7 69 381.3 71 428.8 72.8C476.3 74.7 523.7 76.3 571.2 77.2C618.7 78 666.3 78 714 77.8C761.7 77.7 809.3 77.3 857 77.2C904.7 77 952.3 77 976.2 77L1000 77L1000 101L976.2 101C952.3 101 904.7 101 857 101C809.3 101 761.7 101 714 101C666.3 101 618.7 101 571.2 101C523.7 101 476.3 101 428.8 101C381.3 101 333.7 101 286 101C238.3 101 190.7 101 143 101C95.3 101 47.7 101 23.8 101L0 101Z" fill="#ef5f67"></path><path d="M0 74L23.8 74.7C47.7 75.3 95.3 76.7 143 78C190.7 79.3 238.3 80.7 286 81.7C333.7 82.7 381.3 83.3 428.8 82.2C476.3 81 523.7 78 571.2 77.3C618.7 76.7 666.3 78.3 714 79C761.7 79.7 809.3 79.3 857 79.3C904.7 79.3 952.3 79.7 976.2 79.8L1000 80L1000 101L976.2 101C952.3 101 904.7 101 857 101C809.3 101 761.7 101 714 101C666.3 101 618.7 101 571.2 101C523.7 101 476.3 101 428.8 101C381.3 101 333.7 101 286 101C238.3 101 190.7 101 143 101C95.3 101 47.7 101 23.8 101L0 101Z" fill="#e34c67"></path><path d="M0 82L23.8 82.8C47.7 83.7 95.3 85.3 143 85.7C190.7 86 238.3 85 286 84.7C333.7 84.3 381.3 84.7 428.8 84.7C476.3 84.7 523.7 84.3 571.2 84.2C618.7 84 666.3 84 714 83.5C761.7 83 809.3 82 857 82.3C904.7 82.7 952.3 84.3 976.2 85.2L1000 86L1000 101L976.2 101C952.3 101 904.7 101 857 101C809.3 101 761.7 101 714 101C666.3 101 618.7 101 571.2 101C523.7 101 476.3 101 428.8 101C381.3 101 333.7 101 286 101C238.3 101 190.7 101 143 101C95.3 101 47.7 101 23.8 101L0 101Z" fill="#d53867"></path><path d="M0 89L23.8 89.8C47.7 90.7 95.3 92.3 143 92.3C190.7 92.3 238.3 90.7 286 90.3C333.7 90 381.3 91 428.8 91.2C476.3 91.3 523.7 90.7 571.2 91C618.7 91.3 666.3 92.7 714 93C761.7 93.3 809.3 92.7 857 92C904.7 91.3 952.3 90.7 976.2 90.3L1000 90L1000 101L976.2 101C952.3 101 904.7 101 857 101C809.3 101 761.7 101 714 101C666.3 101 618.7 101 571.2 101C523.7 101 476.3 101 428.8 101C381.3 101 333.7 101 286 101C238.3 101 190.7 101 143 101C95.3 101 47.7 101 23.8 101L0 101Z" fill="#c62368"></path></svg>