<svg id="visual" viewBox="0 0 1500 100" width="1500" height="100" xmlns="http://www.w3.org/2000/svg" xmlns:xlink="http://www.w3.org/1999/xlink" version="1.1"><rect x="0" y="0" width="1500" height="100" fill="#02111B"></rect><path d="M0 63L50 68.8C100 74.7 200 86.3 300 92C400 97.7 500 97.3 600 97.5C700 97.7 800 98.3 900 91.2C1000 84 1100 69 1200 67.5C1300 66 1400 78 1450 84L1500 90L1500 101L1450 101C1400 101 1300 101 1200 101C1100 101 1000 101 900 101C800 101 700 101 600 101C500 101 400 101 300 101C200 101 100 101 50 101L0 101Z" fill="#45526e" stroke-linecap="round" stroke-linejoin="miter"></path></svg>