<svg id="visual" viewBox="0 0 1500 500" width="1500" height="500" xmlns="http://www.w3.org/2000/svg" xmlns:xlink="http://www.w3.org/1999/xlink" version="1.1"><rect x="0" y="0" width="1500" height="500" fill="#02111B"></rect><path d="M0 214L50 251.8C100 289.7 200 365.3 300 380.7C400 396 500 351 600 285.8C700 220.7 800 135.3 900 109.3C1000 83.3 1100 116.7 1200 161.5C1300 206.3 1400 262.7 1450 290.8L1500 319L1500 0L1450 0C1400 0 1300 0 1200 0C1100 0 1000 0 900 0C800 0 700 0 600 0C500 0 400 0 300 0C200 0 100 0 50 0L0 0Z" fill="#f7f0f5" stroke-linecap="round" stroke-linejoin="miter"></path></svg>