<svg id="visual" viewBox="0 0 1500 500" width="1500" height="500" xmlns="http://www.w3.org/2000/svg" xmlns:xlink="http://www.w3.org/1999/xlink" version="1.1"><rect x="0" y="0" width="1500" height="500" fill="#f7f0f5"></rect><path d="M0 427L50 414.5C100 402 200 377 300 372C400 367 500 382 600 403.7C700 425.3 800 453.7 900 462.3C1000 471 1100 460 1200 445C1300 430 1400 411 1450 401.5L1500 392L1500 501L1450 501C1400 501 1300 501 1200 501C1100 501 1000 501 900 501C800 501 700 501 600 501C500 501 400 501 300 501C200 501 100 501 50 501L0 501Z" fill="#02111B" stroke-linecap="round" stroke-linejoin="miter"></path></svg>