<svg id="visual" viewBox="0 0 1500 500" width="1500" height="500" xmlns="http://www.w3.org/2000/svg" xmlns:xlink="http://www.w3.org/1999/xlink" version="1.1"><rect x="0" y="0" width="1500" height="500" fill="#f7f0f5"></rect><path d="M0 475L50 470.8C100 466.7 200 458.3 300 456.7C400 455 500 460 600 467.2C700 474.3 800 483.7 900 486.5C1000 489.3 1100 485.7 1200 480.7C1300 475.7 1400 469.3 1450 466.2L1500 463L1500 501L1450 501C1400 501 1300 501 1200 501C1100 501 1000 501 900 501C800 501 700 501 600 501C500 501 400 501 300 501C200 501 100 501 50 501L0 501Z" fill="#45526e" stroke-linecap="round" stroke-linejoin="miter"></path></svg>