<svg id="visual" viewBox="0 0 1500 500" width="1500" height="500" xmlns="http://www.w3.org/2000/svg" xmlns:xlink="http://www.w3.org/1999/xlink" version="1.1"><rect x="0" y="0" width="1500" height="500" fill="#02111B"></rect><path d="M1409 500L1410.3 491.7C1411.7 483.3 1414.3 466.7 1422.7 450C1431 433.3 1445 416.7 1446.2 400C1447.3 383.3 1435.7 366.7 1419.8 350C1404 333.3 1384 316.7 1376 300C1368 283.3 1372 266.7 1376.8 250C1381.7 233.3 1387.3 216.7 1400 200C1412.7 183.3 1432.3 166.7 1429.7 150C1427 133.3 1402 116.7 1402.7 100C1403.3 83.3 1429.7 66.7 1448.2 50C1466.7 33.3 1477.3 16.7 1482.7 8.3L1488 0L1500 0L1500 8.3C1500 16.7 1500 33.3 1500 50C1500 66.7 1500 83.3 1500 100C1500 116.7 1500 133.3 1500 150C1500 166.7 1500 183.3 1500 200C1500 216.7 1500 233.3 1500 250C1500 266.7 1500 283.3 1500 300C1500 316.7 1500 333.3 1500 350C1500 366.7 1500 383.3 1500 400C1500 416.7 1500 433.3 1500 450C1500 466.7 1500 483.3 1500 491.7L1500 500Z" fill="#f7f0f5" stroke-linecap="round" stroke-linejoin="miter"></path></svg>