<svg id="visual" viewBox="0 0 1000 100" width="1000" height="100" xmlns="http://www.w3.org/2000/svg" xmlns:xlink="http://www.w3.org/1999/xlink" version="1.1"><rect x="0" y="0" width="1000" height="100" fill="#f7f0f5"></rect><path d="M0 65L23.8 63.3C47.7 61.7 95.3 58.3 143 54.2C190.7 50 238.3 45 286 45.3C333.7 45.7 381.3 51.3 428.8 53.5C476.3 55.7 523.7 54.3 571.2 51.5C618.7 48.7 666.3 44.3 714 44C761.7 43.7 809.3 47.3 857 49C904.7 50.7 952.3 50.3 976.2 50.2L1000 50L1000 0L976.2 0C952.3 0 904.7 0 857 0C809.3 0 761.7 0 714 0C666.3 0 618.7 0 571.2 0C523.7 0 476.3 0 428.8 0C381.3 0 333.7 0 286 0C238.3 0 190.7 0 143 0C95.3 0 47.7 0 23.8 0L0 0Z" fill="#fa7268"></path><path d="M0 36L23.8 36.5C47.7 37 95.3 38 143 39C190.7 40 238.3 41 286 42C333.7 43 381.3 44 428.8 44C476.3 44 523.7 43 571.2 42C618.7 41 666.3 40 714 40.7C761.7 41.3 809.3 43.7 857 45.2C904.7 46.7 952.3 47.3 976.2 47.7L1000 48L1000 0L976.2 0C952.3 0 904.7 0 857 0C809.3 0 761.7 0 714 0C666.3 0 618.7 0 571.2 0C523.7 0 476.3 0 428.8 0C381.3 0 333.7 0 286 0C238.3 0 190.7 0 143 0C95.3 0 47.7 0 23.8 0L0 0Z" fill="#ef5f67"></path><path d="M0 25L23.8 26.7C47.7 28.3 95.3 31.7 143 32.7C190.7 33.7 238.3 32.3 286 31.5C333.7 30.7 381.3 30.3 428.8 30.7C476.3 31 523.7 32 571.2 30.8C618.7 29.7 666.3 26.3 714 26.7C761.7 27 809.3 31 857 33.7C904.7 36.3 952.3 37.7 976.2 38.3L1000 39L1000 0L976.2 0C952.3 0 904.7 0 857 0C809.3 0 761.7 0 714 0C666.3 0 618.7 0 571.2 0C523.7 0 476.3 0 428.8 0C381.3 0 333.7 0 286 0C238.3 0 190.7 0 143 0C95.3 0 47.7 0 23.8 0L0 0Z" fill="#e34c67"></path><path d="M0 18L23.8 18.2C47.7 18.3 95.3 18.7 143 18.5C190.7 18.3 238.3 17.7 286 18.2C333.7 18.7 381.3 20.3 428.8 21.5C476.3 22.7 523.7 23.3 571.2 24C618.7 24.7 666.3 25.3 714 25.5C761.7 25.7 809.3 25.3 857 23.8C904.7 22.3 952.3 19.7 976.2 18.3L1000 17L1000 0L976.2 0C952.3 0 904.7 0 857 0C809.3 0 761.7 0 714 0C666.3 0 618.7 0 571.2 0C523.7 0 476.3 0 428.8 0C381.3 0 333.7 0 286 0C238.3 0 190.7 0 143 0C95.3 0 47.7 0 23.8 0L0 0Z" fill="#d53867"></path><path d="M0 17L23.8 17.2C47.7 17.3 95.3 17.7 143 16.7C190.7 15.7 238.3 13.3 286 12.8C333.7 12.3 381.3 13.7 428.8 13.5C476.3 13.3 523.7 11.7 571.2 12.2C618.7 12.7 666.3 15.3 714 14.7C761.7 14 809.3 10 857 8.8C904.7 7.7 952.3 9.3 976.2 10.2L1000 11L1000 0L976.2 0C952.3 0 904.7 0 857 0C809.3 0 761.7 0 714 0C666.3 0 618.7 0 571.2 0C523.7 0 476.3 0 428.8 0C381.3 0 333.7 0 286 0C238.3 0 190.7 0 143 0C95.3 0 47.7 0 23.8 0L0 0Z" fill="#c62368"></path></svg>